<?xml version="1.0" standalone="no"?>
<!--
Font Awesome Pro 5.13.0 by @fontawesome - https://fontawesome.com
License - https://fontawesome.com/license (Commercial License)
-->
<!DOCTYPE svg PUBLIC "-//W3C//DTD SVG 1.1//EN" "http://www.w3.org/Graphics/SVG/1.1/DTD/svg11.dtd" >
<svg xmlns="http://www.w3.org/2000/svg" version="1.1">
	<metadata>
		Created by FontForge 20190801 at Mon Mar 23 10:47:14 2020
		By Robert Madole
		Copyright (c) Font Awesome
	</metadata>
	<defs>
		<font id="FontAwesome5Pro-Regular" horiz-adv-x="640">
			<font-face
					font-family="Font Awesome 5 Pro Regular"
					font-weight="400"
					font-stretch="normal"
					units-per-em="512"
					panose-1="2 0 5 3 0 0 0 0 0 0"
					ascent="448"
					descent="-64"
					bbox="-0.050293 -64 640 448.025"
					underline-thickness="25"
					underline-position="-50"
					unicode-range="U+0020-F976"
			/>
			<missing-glyph/>
			<glyph glyph-name="truck" unicode="&#xf0d1;"
				   d="M624 80c8.7998 0 16 -7.2002 16 -16v-16c0 -8.7998 -7.2002 -16 -16 -16h-48c0 -53 -43 -96 -96 -96s-96 43 -96 96h-128c0 -53 -43 -96 -96 -96s-96 43 -96 96h-8c-30.9004 0 -56 25.0996 -56 56v304c0 30.9004 25.0996 56 56 56h304c30.9004 0 56 -25.0996 56 -56v-40
h36.0996c18.9004 0 37.5 -7.7002 50.9004 -21.0996l83.9004 -83.9004c13.3994 -13.4004 21.0996 -31.9004 21.0996 -50.9004v-116.1h16zM160 -16c26.5 0 48 21.5 48 48s-21.5 48 -48 48s-48 -21.5 -48 -48s21.5 -48 48 -48zM368 80v312c0 4.40039 -3.59961 8 -8 8h-304
c-4.40039 0 -8 -3.59961 -8 -8v-304c0 -4.40039 3.59961 -8 8 -8h21.2998c16.6006 28.5996 47.2002 48 82.7002 48s66.0996 -19.4004 82.7002 -48h125.3zM416 304v-80h126.1l-73 73c-4.5 4.40039 -10.6992 7 -17 7h-36.0996zM480 -16c26.5 0 48 21.5 48 48s-21.5 48 -48 48
s-48 -21.5 -48 -48s21.5 -48 48 -48zM560 84.9004v91.0996h-144v-72.9004c17 15.3008 39.2998 24.9004 64 24.9004c33.4004 0 62.7998 -17.2002 80 -43.0996z"/>
			<glyph glyph-name="stethoscope" unicode="&#xf0f1;" horiz-adv-x="512"
				   d="M120 114c-68 11.5 -120 70.7998 -120 142v164.5c0 5.59961 3.90039 10.5 9.40039 11.7002l69.6992 15.5c6.40039 1.39941 12.9004 -2.60059 14.3008 -9.10059l5.19922 -23.5c1.40039 -6.5 -2.59961 -12.8994 -9.09961 -14.2998l-41.5 -9.2002v-135.6
c0 -53.2998 43.5996 -96.5 96.9004 -95.9004c52.8994 0.5 95.0996 44.3008 95.0996 97.2002v134.4l-41.5 9.2002c-6.5 1.39941 -10.5 7.7998 -9.09961 14.2998l5.19922 23.3994c1.40039 6.5 7.80078 10.5 14.3008 9.10059l69.6992 -15.5
c5.5 -1.2002 9.40039 -6.10059 9.40039 -11.7002v-164.5c0 -71.2002 -52 -130.5 -120 -142v-18c0 -61.7998 53.7998 -112 120 -112s120 50.2002 120 112v99.7002c-32.5 10.2002 -56 40.5 -56 76.2998c0 44.7998 36.9004 81 81.9004 80
c43.5 -1 78.3994 -37.2002 78.0996 -80.5996c-0.299805 -35.5 -23.7002 -65.6006 -56 -75.7002v-99.7002c0 -88.2002 -75.4004 -160 -168 -160s-168 71.7998 -168 160v18zM432 304c-17.5996 0 -32 -14.4004 -32 -32s14.4004 -32 32 -32s32 14.4004 32 32s-14.4004 32 -32 32
z"/>
			<glyph glyph-name="ambulance" unicode="&#xf0f9;"
				   d="M296 288c4.40039 0 8 -3.59961 8 -8v-48c0 -4.40039 -3.59961 -8 -8 -8h-56v-56c0 -4.40039 -3.59961 -8 -8 -8h-48c-4.40039 0 -8 3.59961 -8 8v56h-56c-4.40039 0 -8 3.59961 -8 8v48c0 4.40039 3.59961 8 8 8h56v56c0 4.40039 3.59961 8 8 8h48
c4.40039 0 8 -3.59961 8 -8v-56h56zM624 80c8.7998 0 16 -7.2002 16 -16v-16c0 -8.7998 -7.2002 -16 -16 -16h-48c0 -53 -43 -96 -96 -96s-96 43 -96 96h-128c0 -53 -43 -96 -96 -96s-96 43 -96 96h-8c-30.9004 0 -56 25.0996 -56 56v304c0 30.9004 25.0996 56 56 56h304
c30.9004 0 56 -25.0996 56 -56v-40h36.0996c18.9004 0 37.5 -7.7002 50.9004 -21.0996l83.9004 -83.9004c13.3994 -13.4004 21.0996 -31.9004 21.0996 -50.9004v-116.1h16zM160 -16c26.5 0 48 21.5 48 48s-21.5 48 -48 48s-48 -21.5 -48 -48s21.5 -48 48 -48zM368 80v312
c0 4.40039 -3.59961 8 -8 8h-304c-4.40039 0 -8 -3.59961 -8 -8v-304c0 -4.40039 3.59961 -8 8 -8h21.2998c16.6006 28.5996 47.2002 48 82.7002 48s66.0996 -19.4004 82.7002 -48h125.3zM416 304v-80h126.1l-73 73c-4.5 4.40039 -10.6992 7 -17 7h-36.0996zM480 -16
c26.5 0 48 21.5 48 48s-21.5 48 -48 48s-48 -21.5 -48 -48s21.5 -48 48 -48zM560 84.9004v91.0996h-144v-72.9004c17 15.3008 39.2998 24.9004 64 24.9004c33.4004 0 62.7998 -17.2002 80 -43.0996z"/>
			<glyph glyph-name="heartbeat" unicode="&#xf21e;" horiz-adv-x="512"
				   d="M266.4 20.2998l108.899 107.7h68.2002l-143.3 -141.8c-24.5 -24.2998 -63.9004 -24.2002 -88.4004 0l-143.3 141.8h68.2002l108.8 -107.7c5.7998 -5.7002 15.0996 -5.7002 20.9004 0zM354.7 416c71.0996 0 157.3 -56.9004 157.2 -156
c0 -37.2998 -13.7002 -72.0996 -37.8008 -100h-132l-22.0996 44.2002l-49.7002 -99.4004c-6 -12.0996 -23.3994 -11.7002 -28.8994 0.600586l-56.9004 126.3l-29.9004 -71.7002h-116.8c-24.0996 27.9004 -37.7998 62.7002 -37.7998 100c0 99.0996 86.2002 156 157.3 156
c36.5 0 71 -12.2998 98.7002 -34.9004c27.7002 22.6006 62.2002 34.9004 98.7002 34.9004zM438.6 192c58.8008 69.5 7.30078 176 -83.8994 176c-29.6006 0 -47.6006 -2.90039 -98.7002 -53.4004c-47.7002 47.2002 -67.7002 53.4004 -98.7002 53.4004
c-90.8994 0 -142.7 -106.5 -83.8994 -176h59.8994l35.9004 86.2002c5.39941 12.8994 23.7002 13.2002 29.3994 0.399414l58.2002 -129.3l48.9004 97.9004c5.89941 11.7998 22.7002 11.7998 28.5996 0l27.6006 -55.2002h76.6992z"/>
			<glyph glyph-name="allergies" unicode="&#xf461;" horiz-adv-x="480"
				   d="M256 144c8.7998 0 16 -7.2002 16 -16s-7.2002 -16 -16 -16s-16 7.2002 -16 16s7.2002 16 16 16zM192 160c8.7998 0 16 -7.2002 16 -16s-7.2002 -16 -16 -16s-16 7.2002 -16 16s7.2002 16 16 16zM256 48c8.7998 0 16 -7.2002 16 -16s-7.2002 -16 -16 -16
s-16 7.2002 -16 16s7.2002 16 16 16zM408 336c39.7002 0 72 -32.2998 71.9004 -72v-88.2998c0 -24.2002 -2.40039 -48.5 -7.10059 -72.2002l-20.5996 -103.2c-7.5 -37.2998 -40.5 -64.2998 -78.5 -64.2998h-180.601c-26.7998 0 -51.6992 13.2998 -66.5996 35.7002
l-113.5 171c-22.7998 32.5 -14.7998 77.5 17.7002 100.3c27.2002 19.0996 54.7998 12.5996 65.2998 8.90039v92.0996c0 39.7002 32.2998 72 72 72c6.40039 0 12.7002 -0.799805 18.5996 -2.40039c12.7002 20.6006 35.5 34.4004 61.4004 34.4004
s48.7002 -13.7998 61.4004 -34.4004c5.89941 1.60059 12.1992 2.40039 18.5996 2.40039c39.7002 0 72 -32.2998 72 -72v-8.40039c2.59961 0.200195 5.2998 0.400391 8 0.400391zM432 175.7v88.2998c0 31.7002 -48 31.7998 -48 0v-64c0 -4.40039 -3.59961 -8 -8 -8h-16
c-4.40039 0 -8 3.59961 -8 8v144c0 31.7002 -48 31.7998 -48 0v-144c0 -4.40039 -3.59961 -8 -8 -8h-16c-4.40039 0 -8 3.59961 -8 8v176c0 31.7002 -48 31.7998 -48 0v-176c0 -4.40039 -3.59961 -8 -8 -8h-16c-4.40039 0 -8 3.59961 -8 8v144c0 31.7002 -48 31.7998 -48 0
v-196.1c0 -7.80078 -10.0996 -11.1006 -14.5996 -4.60059l-37.8008 54.4004c-18.5996 26.5996 -57.2998 -1.7998 -39.2998 -27.5l114.101 -171.9c6 -8.89941 16 -14.2998 26.6992 -14.2998h180.7c15.2998 0 28.4004 10.7002 31.4004 25.7002l20.5996 103.2
c4.10059 20.6992 6.2002 41.6992 6.2002 62.7998zM192 80c8.7998 0 16 -7.2002 16 -16s-7.2002 -16 -16 -16s-16 7.2002 -16 16s7.2002 16 16 16zM384 160c8.7998 0 16 -7.2002 16 -16s-7.2002 -16 -16 -16s-16 7.2002 -16 16s7.2002 16 16 16zM352 48
c8.7998 0 16 -7.2002 16 -16s-7.2002 -16 -16 -16s-16 7.2002 -16 16s7.2002 16 16 16zM320 112c8.7998 0 16 -7.2002 16 -16s-7.2002 -16 -16 -16s-16 7.2002 -16 16s7.2002 16 16 16z"/>
			<glyph glyph-name="barcode-alt" unicode="&#xf463;"
				   d="M360 64c-4.40039 0 -8 3.59961 -8 8v240c0 4.40039 3.59961 8 8 8h48c4.40039 0 8 -3.59961 8 -8v-240c0 -4.40039 -3.59961 -8 -8 -8h-48zM456 64c-4.40039 0 -8 3.59961 -8 8v240c0 4.40039 3.59961 8 8 8h48c4.40039 0 8 -3.59961 8 -8v-240
c0 -4.40039 -3.59961 -8 -8 -8h-48zM296 64c-4.40039 0 -8 3.59961 -8 8v240c0 4.40039 3.59961 8 8 8h16c4.40039 0 8 -3.59961 8 -8v-240c0 -4.40039 -3.59961 -8 -8 -8h-16zM592 448c26.5 0 48 -21.5 48 -48v-416c0 -26.5 -21.5 -48 -48 -48h-544
c-26.5 0 -48 21.5 -48 48v416c0 26.5 21.5 48 48 48h544zM592 -16v416h-544v-416h544zM136 64c-4.40039 0 -8 3.59961 -8 8v240c0 4.40039 3.59961 8 8 8h48c4.40039 0 8 -3.59961 8 -8v-240c0 -4.40039 -3.59961 -8 -8 -8h-48zM232 64c-4.40039 0 -8 3.59961 -8 8v240
c0 4.40039 3.59961 8 8 8h16c4.40039 0 8 -3.59961 8 -8v-240c0 -4.40039 -3.59961 -8 -8 -8h-16z"/>
			<glyph glyph-name="barcode-read" unicode="&#xf464;"
				   d="M248 320c4.40039 0 8 -3.59961 8 -8v-240c0 -4.40039 -3.59961 -8 -8 -8h-16c-4.40039 0 -8 3.59961 -8 8v240c0 4.40039 3.59961 8 8 8h16zM184 320c4.40039 0 8 -3.59961 8 -8v-240c0 -4.40039 -3.59961 -8 -8 -8h-48c-4.40039 0 -8 3.59961 -8 8v240
c0 4.40039 3.59961 8 8 8h48zM144 -16c8.7998 0 16 -7.2002 16 -16v-16c0 -8.7998 -7.2002 -16 -16 -16h-128c-8.7998 0 -16 7.2002 -16 16v128c0 8.7998 7.2002 16 16 16h16c8.7998 0 16 -7.2002 16 -16v-96h96zM16 288c-8.7998 0 -16 7.2002 -16 16v128
c0 8.7998 7.2002 16 16 16h128c8.7998 0 16 -7.2002 16 -16v-16c0 -8.7998 -7.2002 -16 -16 -16h-96v-96c0 -8.7998 -7.2002 -16 -16 -16h-16zM512 72c0 -4.40039 -3.59961 -8 -8 -8h-48c-4.40039 0 -8 3.59961 -8 8v240c0 4.40039 3.59961 8 8 8h48
c4.40039 0 8 -3.59961 8 -8v-240zM312 320c4.40039 0 8 -3.59961 8 -8v-240c0 -4.40039 -3.59961 -8 -8 -8h-16c-4.40039 0 -8 3.59961 -8 8v240c0 4.40039 3.59961 8 8 8h16zM624 96c8.7998 0 16 -7.2002 16 -16v-128c0 -8.7998 -7.2002 -16 -16 -16h-128
c-8.7998 0 -16 7.2002 -16 16v16c0 8.7998 7.2002 16 16 16h96v96c0 8.7998 7.2002 16 16 16h16zM624 448c8.7998 0 16 -7.2002 16 -16v-128c0 -8.7998 -7.2002 -16 -16 -16h-16c-8.7998 0 -16 7.2002 -16 16v96h-96c-8.7998 0 -16 7.2002 -16 16v16
c0 8.7998 7.2002 16 16 16h128zM408 320c4.40039 0 8 -3.59961 8 -8v-240c0 -4.40039 -3.59961 -8 -8 -8h-48c-4.40039 0 -8 3.59961 -8 8v240c0 4.40039 3.59961 8 8 8h48z"/>
			<glyph glyph-name="barcode-scan" unicode="&#xf465;"
				   d="M632 216c4.40039 0 8 -2.7002 8 -6v-36c0 -3.2998 -3.59961 -6 -8 -6h-624c-4.40039 0 -8 2.7002 -8 6v36c0 3.2998 3.59961 6 8 6h624zM288 440v-152h-64v152c0 4.40039 3.59961 8 8 8h48c4.40039 0 8 -3.59961 8 -8zM384 440v-152h-32v152c0 4.40039 3.59961 8 8 8h16
c4.40039 0 8 -3.59961 8 -8zM480 440v-152h-64v152c0 4.40039 3.59961 8 8 8h48c4.40039 0 8 -3.59961 8 -8zM160 440v-152h-96v152c0 4.40039 3.59961 8 8 8h80c4.40039 0 8 -3.59961 8 -8zM576 440v-152h-64v152c0 4.40039 3.59961 8 8 8h48c4.40039 0 8 -3.59961 8 -8z
M512 -56v152h64v-152c0 -4.40039 -3.59961 -8 -8 -8h-48c-4.40039 0 -8 3.59961 -8 8zM352 -56v152h32v-152c0 -4.40039 -3.59961 -8 -8 -8h-16c-4.40039 0 -8 3.59961 -8 8zM416 -56v152h64v-152c0 -4.40039 -3.59961 -8 -8 -8h-48c-4.40039 0 -8 3.59961 -8 8zM224 -56
v152h64v-152c0 -4.40039 -3.59961 -8 -8 -8h-48c-4.40039 0 -8 3.59961 -8 8zM64 -56v152h96v-152c0 -4.40039 -3.59961 -8 -8 -8h-80c-4.40039 0 -8 3.59961 -8 8z"/>
			<glyph glyph-name="box" unicode="&#xf466;" horiz-adv-x="512"
				   d="M509.5 263.4c1.7002 -4.90039 2.5 -10 2.5 -15.2002v-264.2c0 -26.5 -21.5 -48 -48 -48h-416c-26.5 0 -48 21.5 -48 48v264.2c0 5.2002 0.900391 10.2998 2.5 15.2002l50.5996 151.8c6.5 19.5996 24.8008 32.7998 45.5 32.7998h314.801
c20.6992 0 39 -13.2002 45.5 -32.7998zM461.4 256l-48 144h-133.4v-144h181.4zM98.5996 400l-48 -144h181.4v144h-133.4zM48 -16h416v224h-416v-224z"/>
			<glyph glyph-name="box-check" unicode="&#xf467;"
				   d="M492.5 314.6c84.5 -20.0996 147.5 -95.8994 147.5 -186.6c0 -106 -86 -192 -192 -192h-400c-26.5 0 -48 21.5 -48 48v264.2c0 5.2002 0.900391 10.2998 2.5 15.2002l50.5996 151.8c6.5 19.5996 24.8008 32.7998 45.5 32.7998h314.801
c20.6992 0 39 -13.2002 45.5 -32.7998zM280 400v-136h32.5c33 32.9004 77.9004 53.5996 127.7 55.5996l-26.7998 80.4004h-133.4zM98.5996 400l-45.2998 -136h178.7v136h-133.4zM48 -16h273.3c-40 35.2002 -65.2998 86.5996 -65.2998 144c0 31.7002 7.90039 61.5996 21.5 88
h-229.5v-232zM448 -16c79.4004 0 144 64.5996 144 144s-64.5996 144 -144 144s-144 -64.5996 -144 -144s64.5996 -144 144 -144zM512.6 189.7l18.5 -18.7002c3.10059 -3.09961 3.10059 -8.09961 0 -11.2002l-94.1992 -93.5c-3.10059 -3.09961 -8.10059 -3.09961 -11.2002 0
l-54.4004 54.9004c-3.09961 3.09961 -3.09961 8.09961 0 11.2002l18.7002 18.5996c3.09961 3.09961 8.09961 3.09961 11.2002 0l30.2998 -30.5996l69.9004 69.2998c3.09961 3.09961 8.09961 3.09961 11.1992 0z"/>
			<glyph glyph-name="boxes" unicode="&#xf468;"
				   d="M592 224c26.5 0 48 -21.5 48 -48v-192c0 -26.5 -21.5 -48 -48 -48h-544c-26.5 0 -48 21.5 -48 48v192c0 26.5 21.5 48 48 48h112v176c0 26.5 21.5 48 48 48h224c26.5 0 48 -21.5 48 -48v-176h112zM208 400v-176h224v176h-64v-90.7002l-48 21.2998l-48 -21.2998v90.7002
h-64zM296 -16v192h-72v-90.7002l-48 21.2998l-48 -21.2998v90.7002h-80v-192h248zM592 -16v192h-80v-90.7002l-48 21.2998l-48 -21.2998v90.7002h-72v-192h248z"/>
			<glyph glyph-name="briefcase-medical" unicode="&#xf469;" horiz-adv-x="512"
				   d="M344 160c4.40039 0 8 -3.59961 8 -8v-48c0 -4.40039 -3.59961 -8 -8 -8h-56v-56c0 -4.40039 -3.59961 -8 -8 -8h-48c-4.40039 0 -8 3.59961 -8 8v56h-56c-4.40039 0 -8 3.59961 -8 8v48c0 4.40039 3.59961 8 8 8h56v56c0 4.40039 3.59961 8 8 8h48
c4.40039 0 8 -3.59961 8 -8v-56h56zM464 320c26.5 0 48 -21.5 48 -48v-288c0 -26.5 -21.5 -48 -48 -48h-416c-26.5 0 -48 21.5 -48 48v288c0 26.5 21.5 48 48 48h112v48c0 26.5 21.5 48 48 48h96c26.5 0 48 -21.5 48 -48v-48h112zM208 368v-48h96v48h-96zM464 -10v276
c0 3.2998 -2.7002 6 -6 6h-404c-3.2998 0 -6 -2.7002 -6 -6v-276c0 -3.2998 2.7002 -6 6 -6h404c3.2998 0 6 2.7002 6 6z"/>
			<glyph glyph-name="burn" unicode="&#xf46a;" horiz-adv-x="384"
				   d="M192 448c104.7 -92.5 192 -214.1 192 -298.1c0 -125.9 -79 -213.9 -192 -213.9s-192 88 -192 213.9c0 83.6992 86.2002 204.6 192 298.1zM192 382.8c-51.4004 -51.2002 -144 -158.7 -144 -232.899c0 -29.4004 5.7002 -55.6006 15.0996 -78.4004
c3.5 75 83.1006 157.3 128.9 208.8c45.2002 -50.8994 125.4 -134.1 128.9 -208.8c9.5 22.7998 15.0996 48.9004 15.0996 78.4004c0 74.3994 -92.5996 181.8 -144 232.899zM173.9 -14.2002c20.7998 -2.39941 15.2998 -2.39941 36.1992 0
c38.1006 7.40039 63.4004 38.7002 63.4004 81.1006c0 20.5996 -13.5 64.5996 -81.5 141.1c-68 -76.5 -81.5 -120.5 -81.5 -141.1c0 -42.4004 25.2998 -73.6006 63.4004 -81.1006z"/>
			<glyph glyph-name="capsules" unicode="&#xf46b;" horiz-adv-x="544"
				   d="M529 151.2c30.7998 -53.2998 12.7002 -121.4 -40.7002 -152.2c-53.3994 -30.7998 -121.5 -12.5 -152.3 40.7998l-111.5 193c-0.200195 0.400391 -0.299805 0.799805 -0.5 1.2002v-154c0 -61.9004 -50.0996 -112 -112 -112s-112 50.0996 -112 112v224
c0 61.9004 50.0996 112 112 112c51.5 0 94.4004 -35 107.5 -82.2998c9.2002 20.7998 24.5996 39 45.7998 51.2998c53.2998 30.7998 121.5 12.5996 152.2 -40.7998zM176 192v112c0 84.7002 -128 84.7002 -128 0v-112h128zM265.9 256.7l43.7998 -75.7998l110.3 63.6992
l-43.7998 75.8008c-42.1006 73 -152.4 9.2998 -110.3 -63.7002z"/>
			<glyph glyph-name="clipboard-check" unicode="&#xf46c;" horiz-adv-x="384"
				   d="M269.3 222.2l23.2998 -23.6006c3.80078 -3.89941 3.80078 -10.1992 -0.0996094 -14.0996l-118.6 -117.6c-3.90039 -3.80078 -10.2002 -3.80078 -14.1006 0.0996094l-68.5 69.0996c-3.7998 3.90039 -3.7998 10.2002 0.100586 14.1006l23.5996 23.3994
c3.90039 3.80078 10.2002 3.80078 14.0996 -0.0996094l38.1006 -38.5l88 87.2998c3.89941 3.7998 10.2002 3.7998 14.0996 -0.0996094zM336 384c26.5 0 48 -21.5 48 -48v-352c0 -26.5 -21.5 -48 -48 -48h-288c-26.5 0 -48 21.5 -48 48v352c0 26.5 21.5 48 48 48h80
c0 35.2998 28.7002 64 64 64s64 -28.7002 64 -64h80zM192 400c-8.7998 0 -16 -7.2002 -16 -16s7.2002 -16 16 -16s16 7.2002 16 16s-7.2002 16 -16 16zM336 -8v336c0 4.40039 -3.59961 8 -8 8h-40v-32c0 -8.7998 -7.2002 -16 -16 -16h-160c-8.7998 0 -16 7.2002 -16 16v32
h-40c-4.40039 0 -8 -3.59961 -8 -8v-336c0 -4.40039 3.59961 -8 8 -8h272c4.40039 0 8 3.59961 8 8z"/>
			<glyph glyph-name="clipboard-list" unicode="&#xf46d;" horiz-adv-x="384"
				   d="M280 208c4.40039 0 8 -3.59961 8 -8v-16c0 -4.40039 -3.59961 -8 -8 -8h-112c-4.40039 0 -8 3.59961 -8 8v16c0 4.40039 3.59961 8 8 8h112zM280 112c4.40039 0 8 -3.59961 8 -8v-16c0 -4.40039 -3.59961 -8 -8 -8h-112c-4.40039 0 -8 3.59961 -8 8v16
c0 4.40039 3.59961 8 8 8h112zM112 216c13.2998 0 24 -10.7002 24 -24s-10.7002 -24 -24 -24s-24 10.7002 -24 24s10.7002 24 24 24zM112 120c13.2998 0 24 -10.7002 24 -24s-10.7002 -24 -24 -24s-24 10.7002 -24 24s10.7002 24 24 24zM336 384c26.5 0 48 -21.5 48 -48
v-352c0 -26.5 -21.5 -48 -48 -48h-288c-26.5 0 -48 21.5 -48 48v352c0 26.5 21.5 48 48 48h80c0 35.2998 28.7002 64 64 64s64 -28.7002 64 -64h80zM192 400c-8.7998 0 -16 -7.2002 -16 -16s7.2002 -16 16 -16s16 7.2002 16 16s-7.2002 16 -16 16zM336 -8v336
c0 4.40039 -3.59961 8 -8 8h-40v-32c0 -8.7998 -7.2002 -16 -16 -16h-160c-8.7998 0 -16 7.2002 -16 16v32h-40c-4.40039 0 -8 -3.59961 -8 -8v-336c0 -4.40039 3.59961 -8 8 -8h272c4.40039 0 8 3.59961 8 8z"/>
			<glyph glyph-name="conveyor-belt" unicode="&#xf46e;"
				   d="M544 128c53 0 96 -43 96 -96s-43 -96 -96 -96h-448c-53 0 -96 43 -96 96s43 96 96 96h448zM544 -16c26.5 0 48 21.5 48 48s-21.5 48 -48 48h-448c-26.5 0 -48 -21.5 -48 -48s21.5 -48 48 -48h448zM128 64c17.7002 0 32 -14.2998 32 -32s-14.2998 -32 -32 -32
s-32 14.2998 -32 32s14.2998 32 32 32zM512 64c17.7002 0 32 -14.2998 32 -32s-14.2998 -32 -32 -32s-32 14.2998 -32 32s14.2998 32 32 32zM320 64c17.7002 0 32 -14.2998 32 -32s-14.2998 -32 -32 -32s-32 14.2998 -32 32s14.2998 32 32 32zM144 160
c-8.7998 0 -16 7.2002 -16 16v256c0 8.7998 7.2002 16 16 16h352c8.7998 0 16 -7.2002 16 -16v-256c0 -8.7998 -7.2002 -16 -16 -16h-352zM176 400v-192h288v192h-80v-112l-64 32l-64 -32v112h-80z"/>
			<glyph glyph-name="conveyor-belt-alt" unicode="&#xf46f;"
				   d="M544 128c53 0 96 -43 96 -96s-43 -96 -96 -96h-448c-53 0 -96 43 -96 96s43 96 96 96h448zM544 -16c26.5 0 48 21.5 48 48s-21.5 48 -48 48h-448c-26.5 0 -48 -21.5 -48 -48s21.5 -48 48 -48h448zM128 64c17.7002 0 32 -14.2998 32 -32s-14.2998 -32 -32 -32
s-32 14.2998 -32 32s14.2998 32 32 32zM512 64c17.7002 0 32 -14.2998 32 -32s-14.2998 -32 -32 -32s-32 14.2998 -32 32s14.2998 32 32 32zM320 64c17.7002 0 32 -14.2998 32 -32s-14.2998 -32 -32 -32s-32 14.2998 -32 32s14.2998 32 32 32zM112 160
c-8.7998 0 -16 7.2002 -16 16v256c0 8.7998 7.2002 16 16 16h256c8.7998 0 16 -7.2002 16 -16v-48h144c8.7998 0 16 -7.2002 16 -16v-192c0 -8.7998 -7.2002 -16 -16 -16h-416zM384 336v-128h112v128h-112zM144 400v-192h192v192h-192z"/>
			<glyph glyph-name="dolly" unicode="&#xf472;" horiz-adv-x="576"
				   d="M575.2 138.1c2.7998 -8.39941 -1.7998 -17.5 -10.2002 -20.2998l-214.5 -71.5996c0.700195 -4.7002 1.40039 -9.2998 1.40039 -14.2002c0 -53 -43 -96 -96 -96s-96 43 -96 96c0 34.7002 18.5996 64.7998 46.1992 81.7002l-93.5996 280.8
c-1.09961 3.2998 -4.2002 5.5 -7.59961 5.5h-88.9004c-8.7998 0 -16 7.2002 -16 16v16c0 8.7998 7.2002 16 16 16h89c24 0 45.4004 -15.4004 53 -38.2998l28.5996 -85.7002l221.9 74c10.0996 3.2998 21 2.5 30.5 -2.2002c9.59961 -4.7998 16.7002 -13 20.0996 -23.0996
l71.9004 -215.7l18.9004 6.40039c8.2998 2.7998 17.3994 -1.7002 20.1992 -10.1006zM256 -16c26.5 0 48 21.5 48 48s-21.5 48 -48 48s-48 -21.5 -48 -48s21.5 -48 48 -48zM331.6 90.5l153.9 51.2002l-69.4004 208.1l-82.2998 -27.3994l19.9004 -59.7002
c2.7998 -8.2998 -1.7002 -17.4004 -10.1006 -20.2002l-15.1992 -5.09961c-8.30078 -2.80078 -17.4004 1.69922 -20.2002 10.0996l-19.9004 59.7002l-86.5 -28.7998l50.2998 -150.801c1.30078 0.100586 2.60059 0.400391 3.90039 0.400391
c30.9004 0 58 -14.7998 75.5996 -37.5z"/>
			<glyph glyph-name="dolly-empty" unicode="&#xf473;" horiz-adv-x="576"
				   d="M575.2 138.1c2.7998 -8.39941 -1.7998 -17.5 -10.2002 -20.2998l-214.5 -71.5996c0.700195 -4.7002 1.40039 -9.2998 1.40039 -14.2002c0 -53 -43 -96 -96 -96s-96 43 -96 96c0 34.7002 18.5996 64.7998 46.1992 81.7002l-93.5996 280.8
c-1.09961 3.2998 -4.2002 5.5 -7.59961 5.5h-88.9004c-8.7998 0 -16 7.2002 -16 16v16c0 8.7998 7.2002 16 16 16h89c24 0 45.4004 -15.4004 53.0996 -38.2998l94 -282.101c1.30078 0.100586 2.60059 0.400391 3.90039 0.400391c30.9004 0 58 -14.7998 75.5996 -37.5
l218.301 72.9004c8.2998 2.7998 17.3994 -1.7002 20.1992 -10.1006zM256 -16c26.5 0 48 21.5 48 48s-21.5 48 -48 48s-48 -21.5 -48 -48s21.5 -48 48 -48z"/>
			<glyph glyph-name="dolly-flatbed" unicode="&#xf474;"
				   d="M208 96c-8.7998 0 -16 7.2002 -16 16v256c0 8.7998 7.2002 16 16 16h384c8.7998 0 16 -7.2002 16 -16v-256c0 -8.7998 -7.2002 -16 -16 -16h-384zM240 336v-192h320v192h-112v-112l-48 32l-48 -32v112h-112zM624 48c8.7998 0 16 -7.2002 16 -16v-16
c0 -8.7998 -7.2002 -16 -16 -16h-82.7998c1.7002 -5 2.89941 -10.4004 2.89941 -16c0 -26.5 -21.5 -48 -48 -48s-48 21.5 -48 48c0 5.59961 1.10059 11 2.90039 16h-197.9c1.7002 -5 2.90039 -10.4004 2.90039 -16c0 -26.5 -21.5 -48 -48 -48s-48 21.5 -48 48
c0 5.59961 1.09961 11 2.90039 16h-50.9004c-8.7998 0 -16 7.2002 -16 16v384h-80c-8.7998 0 -16 7.2002 -16 16v16c0 8.7998 7.2002 16 16 16h112c8.7998 0 16 -7.2002 16 -16v-384h480z"/>
			<glyph glyph-name="dolly-flatbed-alt" unicode="&#xf475;"
				   d="M208 96c-8.7998 0 -16 7.2002 -16 16v256c0 8.7998 7.2002 16 16 16h320c8.7998 0 16 -7.2002 16 -16v-112h48c8.7998 0 16 -7.2002 16 -16v-128c0 -8.7998 -7.2002 -16 -16 -16h-384zM416 336v-80h80v80h-80zM416 208v-64h144v64h-144zM240 336v-192h128v192h-128z
M624 48c8.7998 0 16 -7.2002 16 -16v-16c0 -8.7998 -7.2002 -16 -16 -16h-82.7998c1.7002 -5 2.89941 -10.4004 2.89941 -16c0 -26.5 -21.5 -48 -48 -48s-48 21.5 -48 48c0 5.59961 1.10059 11 2.90039 16h-197.9c1.7002 -5 2.90039 -10.4004 2.90039 -16
c0 -26.5 -21.5 -48 -48 -48s-48 21.5 -48 48c0 5.59961 1.09961 11 2.90039 16h-50.9004c-8.7998 0 -16 7.2002 -16 16v384h-80c-8.7998 0 -16 7.2002 -16 16v16c0 8.7998 7.2002 16 16 16h112c8.7998 0 16 -7.2002 16 -16v-384h480z"/>
			<glyph glyph-name="first-aid" unicode="&#xf479;" horiz-adv-x="576"
				   d="M200 160c-4.40039 0 -8 3.59961 -8 8v48c0 4.40039 3.59961 8 8 8h56v56c0 4.40039 3.59961 8 8 8h48c4.40039 0 8 -3.59961 8 -8v-56h56c4.40039 0 8 -3.59961 8 -8v-48c0 -4.40039 -3.59961 -8 -8 -8h-56v-56c0 -4.40039 -3.59961 -8 -8 -8h-48
c-4.40039 0 -8 3.59961 -8 8v56h-56zM528 416c26.5 0 48 -21.5 48 -48v-352c0 -26.5 -21.5 -48 -48 -48h-480c-26.5 0 -48 21.5 -48 48v352c0 26.5 21.5 48 48 48h480zM96 16v352h-42c-3.2998 0 -6 -2.7002 -6 -6v-340c0 -3.2998 2.7002 -6 6 -6h42zM432 16v352h-288v-352
h288zM528 22v340c0 3.2998 -2.7002 6 -6 6h-42v-352h42c3.2998 0 6 2.7002 6 6z"/>
			<glyph glyph-name="forklift" unicode="&#xf47a;"
				   d="M416 103.1c19.5 -17.5996 32 -42.7998 32 -71.0996c0 -53 -43 -96 -96 -96s-96 43 -96 96h-64c0 -53 -43 -96 -96 -96s-96 43 -96 96v208c0 26.5 21.5 48 48 48h48v112c0 26.5 21.5 48 48 48h144.3c19.2998 0 36.6006 -11.4004 44.2002 -29.0996l78.2998 -182.801
c3.40039 -8 5.2002 -16.5 5.2002 -25.1992v-107.801zM144 400v-122.6l77.4004 -60.9004c7 -5.5 15.7998 -8.5 24.6992 -8.5h121.9v2.90039c0 2.19922 -0.400391 4.2998 -1.2998 6.2998l-78.4004 182.8h-144.3zM96 -16c26.5 0 48 21.5 48 48s-21.5 48 -48 48
s-48 -21.5 -48 -48s21.5 -48 48 -48zM269.3 80c16.6006 28.5996 47.2998 48 82.7002 48c5.5 0 10.7998 -0.700195 16 -1.59961v33.5996h-121.8c-19.6006 0 -39 6.7002 -54.4004 18.7998l-77.8994 61.2002h-65.9004v-125.3c14.2002 8.2002 30.4004 13.2998 48 13.2998
c35.5 0 66.0996 -19.4004 82.7002 -48h90.5996zM352 -16c26.5 0 48 21.5 48 48s-21.5 48 -48 48s-48 -21.5 -48 -48s21.5 -48 48 -48zM624 48c8.7998 0 16 -7.2002 16 -16v-16c0 -8.7998 -7.2002 -16 -16 -16h-128c-8.7998 0 -16 7.2002 -16 16v416
c0 8.7998 7.2002 16 16 16h16c8.7998 0 16 -7.2002 16 -16v-384h96z"/>
			<glyph glyph-name="hospital-alt" unicode="&#xf47d;"
				   d="M500 32c6.59961 0 12 -5.40039 12 -12v-40c0 -6.59961 -5.40039 -12 -12 -12h-40c-6.59961 0 -12 5.40039 -12 12v40c0 6.59961 5.40039 12 12 12h40zM500 192c6.59961 0 12 -5.40039 12 -12v-40c0 -6.59961 -5.40039 -12 -12 -12h-40c-6.59961 0 -12 5.40039 -12 12v40
c0 6.59961 5.40039 12 12 12h40zM340 32c6.59961 0 12 -5.40039 12 -12v-40c0 -6.59961 -5.40039 -12 -12 -12h-40c-6.59961 0 -12 5.40039 -12 12v40c0 6.59961 5.40039 12 12 12h40zM340 192c6.59961 0 12 -5.40039 12 -12v-40c0 -6.59961 -5.40039 -12 -12 -12h-40
c-6.59961 0 -12 5.40039 -12 12v40c0 6.59961 5.40039 12 12 12h40zM180 32c6.59961 0 12 -5.40039 12 -12v-40c0 -6.59961 -5.40039 -12 -12 -12h-40c-6.59961 0 -12 5.40039 -12 12v40c0 6.59961 5.40039 12 12 12h40zM180 192c6.59961 0 12 -5.40039 12 -12v-40
c0 -6.59961 -5.40039 -12 -12 -12h-40c-6.59961 0 -12 5.40039 -12 12v40c0 6.59961 5.40039 12 12 12h40zM362 336c3.2998 0 6 -2.7002 6 -6v-20c0 -3.2998 -2.7002 -6 -6 -6h-26v-26c0 -3.2998 -2.7002 -6 -6 -6h-20c-3.2998 0 -6 2.7002 -6 6v26h-26
c-3.2998 0 -6 2.7002 -6 6v20c0 3.2998 2.7002 6 6 6h26v26c0 3.2998 2.7002 6 6 6h20c3.2998 0 6 -2.7002 6 -6v-26h26zM584 352c30.9004 0 56 -25.0996 56 -56v-352c0 -4.40039 -3.59961 -8 -8 -8h-32c-4.40039 0 -8 3.59961 -8 8v352c0 4.40039 -3.59961 8 -8 8h-168
v90.2998c0 3.10059 -2.5 5.7002 -5.7002 5.7002h-180.6c-3.10059 0 -5.7002 -2.5 -5.7002 -5.7002v-90.2998h-168c-4.40039 0 -8 -3.59961 -8 -8v-352c0 -4.40039 -3.59961 -8 -8 -8h-32c-4.40039 0 -8 3.59961 -8 8v352c0 30.9004 25.0996 56 56 56h120v42.2998
c0 29.6006 24.0996 53.7002 53.7002 53.7002h180.6c29.6006 0 53.7002 -24.0996 53.7002 -53.7002v-42.2998h120z"/>
			<glyph glyph-name="hospital-symbol" unicode="&#xf47e;" horiz-adv-x="512"
				   d="M256 448c141.4 0 256 -114.6 256 -256s-114.6 -256 -256 -256s-256 114.6 -256 256s114.6 256 256 256zM256 -16c114.7 0 208 93.2998 208 208s-93.2998 208 -208 208s-208 -93.2998 -208 -208s93.2998 -208 208 -208zM344 304c4.40039 0 8 -3.59961 8 -8v-208
c0 -4.40039 -3.59961 -8 -8 -8h-32c-4.40039 0 -8 3.59961 -8 8v80h-96v-80c0 -4.40039 -3.59961 -8 -8 -8h-32c-4.40039 0 -8 3.59961 -8 8v208c0 4.40039 3.59961 8 8 8h32c4.40039 0 8 -3.59961 8 -8v-80h96v80c0 4.40039 3.59961 8 8 8h32z"/>
			<glyph glyph-name="notes-medical" unicode="&#xf481;" horiz-adv-x="384"
				   d="M336 384c26.5 0 48 -21.5 48 -48v-352c0 -26.5 -21.5 -48 -48 -48h-288c-26.5 0 -48 21.5 -48 48v352c0 26.5 21.5 48 48 48h80c0 35.2998 28.7002 64 64 64s64 -28.7002 64 -64h80zM192 408c-13.2998 0 -24 -10.7002 -24 -24s10.7002 -24 24 -24s24 10.7002 24 24
s-10.7002 24 -24 24zM336 -10v340c0 3.2998 -2.7002 6 -6 6h-42v-36c0 -6.59961 -5.40039 -12 -12 -12h-168c-6.59961 0 -12 5.40039 -12 12v36h-42c-3.2998 0 -6 -2.7002 -6 -6v-340c0 -3.2998 2.7002 -6 6 -6h276c3.2998 0 6 2.7002 6 6zM280 160
c4.40039 0 8 -3.59961 8 -8v-48c0 -4.40039 -3.59961 -8 -8 -8h-56v-56c0 -4.40039 -3.59961 -8 -8 -8h-48c-4.40039 0 -8 3.59961 -8 8v56h-56c-4.40039 0 -8 3.59961 -8 8v48c0 4.40039 3.59961 8 8 8h56v56c0 4.40039 3.59961 8 8 8h48c4.40039 0 8 -3.59961 8 -8v-56h56
z"/>
			<glyph glyph-name="pallet" unicode="&#xf482;"
				   d="M144 160c-8.7998 0 -16 7.2002 -16 16v256c0 8.7998 7.2002 16 16 16h352c8.7998 0 16 -7.2002 16 -16v-256c0 -8.7998 -7.2002 -16 -16 -16h-352zM176 400v-192h288v192h-80v-80l-64 32l-64 -32v80h-80zM624 80h-48v-96h48c8.7998 0 16 -7.2002 16 -16v-16
c0 -8.7998 -7.2002 -16 -16 -16h-608c-8.7998 0 -16 7.2002 -16 16v16c0 8.7998 7.2002 16 16 16h48v96h-48c-8.7998 0 -16 7.2002 -16 16v16c0 8.7998 7.2002 16 16 16h608c8.7998 0 16 -7.2002 16 -16v-16c0 -8.7998 -7.2002 -16 -16 -16zM176 -16v96h-64v-96h64zM416 -16
v96h-192v-96h192zM528 -16v96h-64v-96h64z"/>
			<glyph glyph-name="pallet-alt" unicode="&#xf483;"
				   d="M112 160c-8.7998 0 -16 7.2002 -16 16v256c0 8.7998 7.2002 16 16 16h256c8.7998 0 16 -7.2002 16 -16v-48h144c8.7998 0 16 -7.2002 16 -16v-192c0 -8.7998 -7.2002 -16 -16 -16h-416zM384 336v-128h112v128h-112zM144 400v-192h192v192h-192zM624 80h-48v-96h48
c8.7998 0 16 -7.2002 16 -16v-16c0 -8.7998 -7.2002 -16 -16 -16h-608c-8.7998 0 -16 7.2002 -16 16v16c0 8.7998 7.2002 16 16 16h48v96h-48c-8.7998 0 -16 7.2002 -16 16v16c0 8.7998 7.2002 16 16 16h608c8.7998 0 16 -7.2002 16 -16v-16c0 -8.7998 -7.2002 -16 -16 -16z
M176 -16v96h-64v-96h64zM416 -16v96h-192v-96h192zM528 -16v96h-64v-96h64z"/>
			<glyph glyph-name="pills" unicode="&#xf484;" horiz-adv-x="576"
				   d="M112 416c61.9004 0 112 -50.0996 112 -112v-224c0 -61.9004 -50.0996 -112 -112 -112s-112 50.0996 -112 112v224c0 61.9004 50.0996 112 112 112zM176 192v112c0 84.7002 -128 84.7002 -128 0v-112h128zM529.1 241.1c62.5 -62.3994 62.5 -163.8 0 -226.3
s-163.899 -62.3994 -226.3 0c-62.5 62.5 -62.5 163.8 0 226.3s163.9 62.4004 226.3 0zM321.8 188.3c-64.7998 -100.8 53.9004 -219.1 154.5 -154.5zM510.2 67.7002c64.7998 100.8 -53.9004 219.2 -154.5 154.5z"/>
			<glyph glyph-name="prescription-bottle" unicode="&#xf485;" horiz-adv-x="448"
				   d="M416 448c17.7002 0 32 -14.2998 32 -32v-96c0 -8.7998 -7.2002 -16 -16 -16h-16v-336c0 -17.7002 -14.2998 -32 -32 -32h-320c-17.7002 0 -32 14.2998 -32 32v336h-16c-8.7998 0 -16 7.2002 -16 16v96c0 17.7002 14.2998 32 32 32h384zM48 400v-48h352v48h-352zM368 -16
v320h-288v-40h88c4.40039 0 8 -3.59961 8 -8v-32c0 -4.40039 -3.59961 -8 -8 -8h-88v-48h88c4.40039 0 8 -3.59961 8 -8v-32c0 -4.40039 -3.59961 -8 -8 -8h-88v-48h88c4.40039 0 8 -3.59961 8 -8v-32c0 -4.40039 -3.59961 -8 -8 -8h-88v-40h288z"/>
			<glyph glyph-name="prescription-bottle-alt" unicode="&#xf486;" horiz-adv-x="448"
				   d="M136 128c-4.40039 0 -8 3.59961 -8 8v48c0 4.40039 3.59961 8 8 8h56v56c0 4.40039 3.59961 8 8 8h48c4.40039 0 8 -3.59961 8 -8v-56h56c4.40039 0 8 -3.59961 8 -8v-48c0 -4.40039 -3.59961 -8 -8 -8h-56v-56c0 -4.40039 -3.59961 -8 -8 -8h-48
c-4.40039 0 -8 3.59961 -8 8v56h-56zM416 448c17.7002 0 32 -14.2998 32 -32v-96c0 -8.7998 -7.2002 -16 -16 -16h-16v-336c0 -17.7002 -14.2998 -32 -32 -32h-320c-17.7002 0 -32 14.2998 -32 32v336h-16c-8.7998 0 -16 7.2002 -16 16v96c0 17.7002 14.2998 32 32 32h384z
M368 -16v320h-288v-320h288zM400 352v48h-352v-48h352z"/>
			<glyph glyph-name="procedures" unicode="&#xf487;"
				   d="M520 208c66.2002 0 120 -53.7998 120 -120v-144c0 -4.40039 -3.59961 -8 -8 -8h-32c-4.40039 0 -8 3.59961 -8 8v40h-544v-40c0 -4.40039 -3.59961 -8 -8 -8h-32c-4.40039 0 -8 3.59961 -8 8v368c0 4.40039 3.59961 8 8 8h32c4.40039 0 8 -3.59961 8 -8v-280h224v136
c0 22.0996 17.9004 40 40 40h208zM592 32v56c0 39.7002 -32.2998 72 -72 72h-200v-128h272zM160 64c-44.0996 0 -80 35.9004 -80 80s35.9004 80 80 80s80 -35.9004 80 -80s-35.9004 -80 -80 -80zM160 176c-17.7002 0 -32 -14.4004 -32 -32s14.2998 -32 32 -32
s32 14.4004 32 32s-14.2998 32 -32 32zM144 320c-8.7998 0 -16 7.2002 -16 16v16c0 8.7998 7.2002 16 16 16h144l17.2002 -34.2998l54.0996 108.2c4 8.09961 15.7002 8.09961 19.7998 0l36.9004 -73.9004h88c13.2002 0 24 -10.7002 24 -24s-10.7998 -24 -24 -24h-117.7
l-17.2002 34.2998l-54.0996 -108.2c-4.09961 -8.19922 -15.7002 -8.19922 -19.7998 0l-36.9004 73.9004h-114.3z"/>
			<glyph glyph-name="scanner-keyboard" unicode="&#xf489;" horiz-adv-x="576"
				   d="M400 384c8.7998 0 16 -7.2002 16 -16v-182.7c0 -8.5 -3.40039 -16.5996 -9.40039 -22.5996l-22.5996 -22.6006v-156.1c0 -26.5 -21.5 -48 -48 -48h-256c-26.5 0 -48 21.5 -48 48v156.1l-22.5996 22.7002c-6 6 -9.40039 14.1006 -9.40039 22.6006v182.6
c0 8.7998 7.2002 16 16 16h384zM368 192v144h-320v-144l32 -32v-176h256v176zM184 80c4.40039 0 8 -3.59961 8 -8v-48c0 -4.40039 -3.59961 -8 -8 -8h-64c-4.40039 0 -8 3.59961 -8 8v48c0 4.40039 3.59961 8 8 8h64zM296 80c4.40039 0 8 -3.59961 8 -8v-48
c0 -4.40039 -3.59961 -8 -8 -8h-64c-4.40039 0 -8 3.59961 -8 8v48c0 4.40039 3.59961 8 8 8h64zM184 176c4.40039 0 8 -3.59961 8 -8v-48c0 -4.40039 -3.59961 -8 -8 -8h-64c-4.40039 0 -8 3.59961 -8 8v48c0 4.40039 3.59961 8 8 8h64zM296 176c4.40039 0 8 -3.59961 8 -8
v-48c0 -4.40039 -3.59961 -8 -8 -8h-64c-4.40039 0 -8 3.59961 -8 8v48c0 4.40039 3.59961 8 8 8h64zM112 224c-8.7998 0 -16 7.2002 -16 16v32c0 8.7998 7.2002 16 16 16h192c8.7998 0 16 -7.2002 16 -16v-32c0 -8.7998 -7.2002 -16 -16 -16h-192zM256 440v-24h-64v24
c0 4.40039 3.59961 8 8 8h48c4.40039 0 8 -3.59961 8 -8zM320 440v-24h-32v24c0 4.40039 3.59961 8 8 8h16c4.40039 0 8 -3.59961 8 -8zM568 448c4.40039 0 8 -3.59961 8 -8v-272c0 -4.40039 -3.59961 -8 -8 -8h-48c-4.40039 0 -8 3.59961 -8 8v272c0 4.40039 3.59961 8 8 8
h48zM408 448c4.40039 0 8 -3.59961 8 -8v-24h-64v24c0 4.40039 3.59961 8 8 8h48zM472 448c4.40039 0 8 -3.59961 8 -8v-272c0 -4.40039 -3.59961 -8 -8 -8h-16c-4.40039 0 -8 3.59961 -8 8v272c0 4.40039 3.59961 8 8 8h16z"/>
			<glyph glyph-name="shipping-fast" unicode="&#xf48b;"
				   d="M624 80c8.7998 0 16 -7.2002 16 -16v-16c0 -8.7998 -7.2002 -16 -16 -16h-48c0 -53 -43 -96 -96 -96s-96 43 -96 96h-128c0 -53 -43 -96 -96 -96s-96 43 -96 96v128h48v-45.2998c14.2002 8.2002 30.4004 13.2998 48 13.2998c35.5 0 66.0996 -19.4004 82.7002 -48h125.3
v312c0 4.40039 -3.59961 8 -8 8h-240c-4.40039 0 -8 -3.59961 -8 -8v-40h136c4.40039 0 8 -3.59961 8 -8v-16c0 -4.40039 -3.59961 -8 -8 -8h-240c-4.40039 0 -8 3.59961 -8 8v16c0 4.40039 3.59961 8 8 8h56v40c0 30.9004 25.0996 56 56 56h240
c30.9004 0 56 -25.0996 56 -56v-40h36.0996c18.9004 0 37.5 -7.7002 50.9004 -21.0996l83.9004 -83.9004c13.3994 -13.4004 21.0996 -31.9004 21.0996 -50.9004v-116.1h16zM160 -16c26.5 0 48 21.5 48 48s-21.5 48 -48 48s-48 -21.5 -48 -48s21.5 -48 48 -48zM416 304v-80
h126.1l-73 73c-4.5 4.40039 -10.6992 7 -17 7h-36.0996zM480 -16c26.5 0 48 21.5 48 48s-21.5 48 -48 48s-48 -21.5 -48 -48s21.5 -48 48 -48zM560 84.9004v91.0996h-144v-72.9004c17 15.3008 39.2998 24.9004 64 24.9004c33.4004 0 62.7998 -17.2002 80 -43.0996zM256 200
c0 -4.40039 -3.59961 -8 -8 -8h-240c-4.40039 0 -8 3.59961 -8 8v16c0 4.40039 3.59961 8 8 8h240c4.40039 0 8 -3.59961 8 -8v-16zM280 256h-240c-4.40039 0 -8 3.59961 -8 8v16c0 4.40039 3.59961 8 8 8h240c4.40039 0 8 -3.59961 8 -8v-16c0 -4.40039 -3.59961 -8 -8 -8z
"/>
			<glyph glyph-name="shipping-timed" unicode="&#xf48c;"
				   d="M208 360c57.4004 0 104 -46.5996 104 -104s-46.5996 -104 -104 -104s-104 46.5996 -104 104s46.5996 104 104 104zM256 232v16c0 4.40039 -3.59961 8 -8 8h-24v56c0 4.40039 -3.59961 8 -8 8h-16c-4.40039 0 -8 -3.59961 -8 -8v-80c0 -4.40039 3.59961 -8 8 -8h48
c4.40039 0 8 3.59961 8 8zM624 80c8.7998 0 16 -7.2002 16 -16v-16c0 -8.7998 -7.2002 -16 -16 -16h-48c0 -53 -43 -96 -96 -96s-96 43 -96 96h-128c0 -53 -43 -96 -96 -96s-96 43 -96 96h-8c-30.9004 0 -56 25.0996 -56 56v304c0 30.9004 25.0996 56 56 56h304
c30.9004 0 56 -25.0996 56 -56v-40h36.0996c18.9004 0 37.5 -7.7002 50.9004 -21.0996l83.9004 -83.9004c13.3994 -13.4004 21.0996 -31.9004 21.0996 -50.9004v-116.1h16zM160 -16c26.5 0 48 21.5 48 48s-21.5 48 -48 48s-48 -21.5 -48 -48s21.5 -48 48 -48zM368 80v312
c0 4.40039 -3.59961 8 -8 8h-304c-4.40039 0 -8 -3.59961 -8 -8v-304c0 -4.40039 3.59961 -8 8 -8h21.2998c16.6006 28.5996 47.2002 48 82.7002 48s66.0996 -19.4004 82.7002 -48h125.3zM416 304v-80h126.1l-73 73c-4.5 4.40039 -10.6992 7 -17 7h-36.0996zM480 -16
c26.5 0 48 21.5 48 48s-21.5 48 -48 48s-48 -21.5 -48 -48s21.5 -48 48 -48zM560 84.9004v107.1h-144v-88.9004c17 15.3008 39.2998 24.9004 64 24.9004c33.4004 0 62.7998 -17.2002 80 -43.0996z"/>
			<glyph glyph-name="smoking" unicode="&#xf48d;"
				   d="M503.7 306.4c35.2998 -24.7002 56.2998 -64.8008 56.2998 -108.101v-30.2998c0 -4.40039 -3.59961 -8 -8 -8h-32c-4.40039 0 -8 3.59961 -8 8v30.2998c0 27.4004 -13.2998 52.9004 -35.7002 68.6006c-35.7002 25.0996 -60.2998 63 -60.2998 106.699v66.4004
c0 4.40039 3.59961 8 8 8h32c4.40039 0 8 -3.59961 8 -8v-62.2998c0 -29 15.7998 -54.7002 39.7002 -71.2998zM553.3 360.9c54.2998 -36.4004 86.7002 -97.1006 86.7002 -162.601v-30.2998c0 -4.40039 -3.59961 -8 -8 -8h-32c-4.40039 0 -8 3.59961 -8 8v30.2998
c0 50.2002 -25.2002 96.7002 -67.4004 124c-18.3994 12 -28.5996 33.4004 -28.5996 55.4004v62.2998c0 4.40039 3.59961 8 8 8h32c4.40039 0 8 -3.59961 8 -8v-62.2998c0 -6.7998 3.59961 -13 9.2998 -16.7998zM632 96c4.40039 0 8 -3.59961 8 -8v-144
c0 -4.40039 -3.59961 -8 -8 -8h-32c-4.40039 0 -8 3.59961 -8 8v144c0 4.40039 3.59961 8 8 8h32zM552 96c4.40039 0 8 -3.59961 8 -8v-144c0 -4.40039 -3.59961 -8 -8 -8h-32c-4.40039 0 -8 3.59961 -8 8v144c0 4.40039 3.59961 8 8 8h32zM456 96
c13.2002 0 24 -10.7998 24 -24v-112c0 -13.2002 -10.7998 -24 -24 -24h-408c-26.5 0 -48 21.5 -48 48v64c0 26.5 21.5 48 48 48h408zM432 -16v64h-208v-64h208z"/>
			<glyph glyph-name="syringe" unicode="&#xf48e;" horiz-adv-x="512"
				   d="M475.7 332.5l-22.7002 22.5996l-33.9004 -33.8994l67.9004 -67.9004c3.09961 -3.09961 3.09961 -8.2002 0 -11.2998l-22.7002 -22.5996c-3.09961 -3.10059 -8.2002 -3.10059 -11.2998 0l-11.2998 11.2998l-215.8 -215.8
c-16.7002 -16.7002 -38.9004 -25.8008 -62.1006 -25.8008c-6.7998 0 -5 0 -79.7998 8.30078l-59.0996 -59c-3.10059 -3.10059 -8.2002 -3.10059 -11.3008 0l-11.2998 11.2998c-3.09961 3.09961 -3.09961 8.2002 0 11.2998l59.2002 59l-7.7998 69.9004
c-3 26.7998 6.2002 53 25.2002 72l215.8 215.899l-11.2998 11.2998c-3.10059 3.10059 -3.10059 8.2002 0 11.3008l22.5996 22.5996c3.09961 3.09961 8.2002 3.09961 11.2998 0l67.9004 -67.7998l33.8994 33.8994l-22.5996 22.6006
c-3.09961 3.09961 -3.09961 8.2002 0 11.2998l22.7002 22.7002c3.09961 3.09961 8.2002 3.09961 11.2998 0l79.0996 -79.2998c3.10059 -3.10059 3.10059 -8.2002 0 -11.3008l-22.5996 -22.5996c-3.09961 -3.09961 -8.2002 -3.09961 -11.2998 0zM192 48.7998l215.8 215.8
l-79.2002 79.2002l-33.8994 -33.8994l28.2998 -28.3008c6.2002 -6.19922 6.2002 -16.3994 0 -22.5996l-11.4004 -11.4004c-6.19922 -6.19922 -16.3994 -6.19922 -22.5996 0l-28.2998 28.3008l-33.9004 -33.9004l28.2002 -28.5c6.2002 -6.2002 6.2002 -16.4004 0 -22.5996
l-11.2998 -11.3008c-6.2002 -6.19922 -16.4004 -6.19922 -22.6006 0l-28.2998 28.3008l-33.8994 -33.9004l28.2998 -28.2998c6.2002 -6.2002 6.2002 -16.4004 0 -22.6006l-11.2998 -11.2998c-6.2002 -6.2002 -16.4004 -6.2002 -22.6006 0l-28.2998 28.2998
l-12.2002 -12.1992c-8.59961 -8.60059 -12.7998 -20.5 -11.5 -32.7002l5.7998 -52.1006l52.2002 -5.7998c12.1006 -1.39941 24.1006 2.7998 32.7002 11.5z"/>
			<glyph glyph-name="tablet-rugged" unicode="&#xf48f;" horiz-adv-x="448"
				   d="M439.2 283.6l-23.2002 -11.5996v-16l23.2002 -11.5996c5.39941 -2.7002 8.7998 -8.2002 8.7998 -14.3008v-76.1992c0 -6.10059 -3.40039 -11.6006 -8.7998 -14.3008l-23.2002 -11.5996v-16l23.2002 -11.5996c5.39941 -2.7002 8.7998 -8.2002 8.7998 -14.3008v-76.1992
c0 -6.10059 -3.40039 -11.6006 -8.7998 -14.3008l-23.2002 -11.5996c0 -26.5 -21.5 -48 -48 -48h-288c-26.5 0 -48 21.5 -48 48l-23.2002 11.5996c-5.39941 2.7002 -8.7998 8.2002 -8.7998 14.3008v76.1992c0 6.10059 3.40039 11.6006 8.7998 14.3008l23.2002 11.5996v16
l-23.2002 11.5996c-5.39941 2.7002 -8.7998 8.2002 -8.7998 14.3008v76.1992c0 6.10059 3.40039 11.6006 8.7998 14.3008l23.2002 11.5996v16l-23.2002 11.5996c-5.39941 2.7002 -8.7998 8.2002 -8.7998 14.3008v76.1992c0 6.10059 3.40039 11.6006 8.7998 14.3008
l23.2002 11.5996c0 26.5 21.5 48 48 48h288c26.5 0 48 -21.5 48 -48l23.2002 -11.5996c5.39941 -2.7002 8.7998 -8.2002 8.7998 -14.3008v-76.1992c0 -6.10059 -3.40039 -11.6006 -8.7998 -14.3008zM368 0v384c0 8.7998 -7.2002 16 -16 16h-256
c-8.7998 0 -16 -7.2002 -16 -16v-384c0 -8.7998 7.2002 -16 16 -16h256c8.7998 0 16 7.2002 16 16z"/>
			<glyph glyph-name="tablets" unicode="&#xf490;"
				   d="M160 256c88.4004 0 160 -71.5996 160 -160s-71.5996 -160 -160 -160s-160 71.5996 -160 160s71.5996 160 160 160zM50.7002 72c25.7002 -116.7 192.899 -117 218.5 0h-218.5zM50.7002 120h218.5c-25.6006 116.9 -192.8 116.9 -218.5 0zM593.1 401.1
c62.5 -62.3994 62.5 -163.8 0 -226.3s-163.899 -62.3994 -226.3 0c-62.5 62.5 -62.5 163.8 0 226.3s163.9 62.4004 226.3 0zM385.8 348.3c-64.7998 -100.8 53.9004 -219.1 154.5 -154.5zM574.2 227.7c64.7998 100.8 -53.9004 219.2 -154.5 154.5z"/>
			<glyph glyph-name="thermometer" unicode="&#xf491;" horiz-adv-x="512"
				   d="M476.8 427.6c49.4004 -40.6992 42.1006 -107.3 7.2002 -142.199l-254.2 -253.301h-99.8994l-89 -89c-9.30078 -9.39941 -24.5 -9.39941 -33.9004 0c-9.40039 9.30078 -9.40039 24.5 0 33.9004l89 89v100.9l248.9 250.5c36.3994 36.5 94.3994 40.8994 131.899 10.1992z
M450.1 319.4c17.1006 17.0996 21.5 50.1992 -4 71.1992c-18.5996 15.2002 -48.1992 12.1006 -67.3994 -7l-32.6006 -32.7998l28.2002 -28.2002c6.2002 -6.19922 6.2002 -16.2998 0 -22.5996l-11.2998 -11.2998c-6.2002 -6.2002 -16.4004 -6.2002 -22.5996 0
l-28.1006 28.0996l-33.7998 -34.0996l28 -28c6.2998 -6.2002 6.2998 -16.4004 0 -22.6006l-11.2998 -11.2998c-6.2002 -6.2002 -16.4004 -6.2002 -22.6006 0l-27.7998 27.7998l-33.7998 -34.0996l27.5996 -27.7998c6.2002 -6.2002 6.2002 -16.4004 0 -22.6006
l-11.2998 -11.2998c-6.2002 -6.2002 -16.3994 -6.2002 -22.5996 0l-27.6006 27.6006l-33.0996 -33.3008v-67.0996h66z"/>
			<glyph glyph-name="vial" unicode="&#xf492;" horiz-adv-x="480"
				   d="M477.7 261.9c3.09961 -3.10059 3.09961 -8.2002 0.0996094 -11.2002l-22.2998 -22.2998c-1.59961 -1.5 -3.59961 -2.30078 -5.7002 -2.30078c-2.09961 0 -4.09961 0.700195 -5.7002 2.30078l-11.0996 11.0996l-257.4 -257.4c-40.1992 -40.0996 -105.399 -40 -145.5 0
c-40.0996 40.1006 -40.0996 105.4 0 145.5l257.4 257.4l-11.2998 11.0996c-3.10059 3.10059 -3.10059 8.2002 0 11.3008l22.2998 22.2998c1.59961 1.5 3.7002 2.2998 5.7002 2.2998c2.09961 0 4.09961 -0.700195 5.7002 -2.2998zM141.6 16l128 128h-155.199
l-50.4004 -50.4004c-21.4004 -21.3994 -21.4004 -56.1992 0 -77.5996c21.5 -21.5 56.2998 -21.2998 77.5996 0zM317.6 192l81 81l-77.5996 77.5996l-158.6 -158.6h155.199z"/>
			<glyph glyph-name="vials" unicode="&#xf493;"
				   d="M72 400c-4.40039 0 -8 3.59961 -8 8v32c0 4.40039 3.59961 8 8 8h208c4.40039 0 8 -3.59961 8 -8v-32c0 -4.40039 -3.59961 -8 -8 -8h-24v-288c0 -44.0996 -35.9004 -80 -80 -80s-80 35.9004 -80 80v288h-24zM144 400v-112h64v112h-64zM144 240v-128
c0 -42.2998 64 -42.2998 64 0v128h-64zM632 -16c4.40039 0 8 -3.59961 8 -8v-32c0 -4.40039 -3.59961 -8 -8 -8h-624c-4.40039 0 -8 3.59961 -8 8v32c0 4.40039 3.59961 8 8 8h624zM360 400c-4.40039 0 -8 3.59961 -8 8v32c0 4.40039 3.59961 8 8 8h208
c4.40039 0 8 -3.59961 8 -8v-32c0 -4.40039 -3.59961 -8 -8 -8h-24v-288c0 -44.0996 -35.9004 -80 -80 -80s-80 35.9004 -80 80v288h-24zM432 400v-112h64v112h-64zM432 240v-128c0 -42.2998 64 -42.2998 64 0v128h-64z"/>
			<glyph glyph-name="warehouse" unicode="&#xf494;"
				   d="M504 240c22.0996 0 40 -17.9004 40 -40v-248c0 -8.7998 -7.2002 -16 -16 -16h-16c-8.7998 0 -16 7.2002 -16 16v48h-352v-48c0 -8.7998 -7.2002 -16 -16 -16h-16c-8.7998 0 -16 7.2002 -16 16v248c0 22.0996 17.9004 40 40 40h368zM496 32v64h-352v-64h352zM496 128v64
h-352v-64h352zM597.9 337.9c25.5996 -10.6006 42.0996 -35.4004 42.0996 -63.1006v-322.8c0 -8.7998 -7.2002 -16 -16 -16h-16c-8.7998 0 -16 7.2002 -16 16v322.8c0 8.2002 -4.90039 15.6006 -12.5 18.7998l-251.6 104.801c-5.10059 2.09961 -10.6006 2.09961 -15.7002 0
l-251.7 -104.801c-7.59961 -3.09961 -12.5 -10.5 -12.5 -18.7998v-322.8c0 -8.7998 -7.2002 -16 -16 -16h-16c-8.7998 0 -16 7.2002 -16 16v322.8c0 27.7002 16.5 52.5 42.0996 63.1006l251.601 104.8c16.8994 7.09961 35.5996 7 52.5996 0z"/>
			<glyph glyph-name="warehouse-alt" unicode="&#xf495;"
				   d="M528 96c8.7998 0 16 -7.2002 16 -16v-128c0 -8.7998 -7.2002 -16 -16 -16h-416c-8.7998 0 -16 7.2002 -16 16v256c0 8.7998 7.2002 16 16 16h224c8.7998 0 16 -7.2002 16 -16v-112h176zM304 -16v64h-160v-64h160zM304 112v64h-160v-64h160zM496 -16v64h-144v-64h144z
M597.9 337.9c25.5996 -10.6006 42.0996 -35.4004 42.0996 -63.1006v-322.8c0 -8.7998 -7.2002 -16 -16 -16h-16c-8.7998 0 -16 7.2002 -16 16v322.8c0 8.2002 -4.90039 15.6006 -12.5 18.7998l-251.6 104.801c-5.10059 2.09961 -10.6006 2.09961 -15.7002 0l-251.7 -104.801
c-7.59961 -3.09961 -12.5 -10.5 -12.5 -18.7998v-322.8c0 -8.7998 -7.2002 -16 -16 -16h-16c-8.7998 0 -16 7.2002 -16 16v322.8c0 27.7002 16.5 52.5 42.0996 63.1006l251.601 104.8c16.8994 7.09961 35.5996 7 52.5996 0z"/>
			<glyph glyph-name="weight" unicode="&#xf496;" horiz-adv-x="512"
				   d="M448 384c35.29 0 64 -28.71 64 -64v-320c0 -35.29 -28.71 -64 -64 -64h-384c-35.29 0 -64 28.71 -64 64v320c0 35.29 28.71 64 64 64h64.8096c29.2402 38.6201 75.1201 64 127.19 64s97.9502 -25.3799 127.19 -64h64.8096zM256 400c-61.8604 0 -112 -50.1396 -112 -112
s50.1396 -112 112 -112s112 50.1396 112 112s-50.1396 112 -112 112zM464 0v320c0 8.83984 -7.16016 16 -16 16h-40.1699c4.83984 -15.25 8.16992 -31.1699 8.16992 -48c0 -88.2197 -71.7803 -160 -160 -160s-160 71.7803 -160 160c0 16.8301 3.33008 32.75 8.16992 48
h-40.1699c-8.83984 0 -16 -7.16016 -16 -16v-320c0 -8.83984 7.16016 -16 16 -16h384c8.83984 0 16 7.16016 16 16zM256 208c-17.6699 0 -32 14.3301 -32 32c0 15.3096 10.9697 27.5098 25.3301 30.6504l23.4697 70.4092c6.75 20.0801 37.04 9.95996 30.3799 -10.1191
l-23.3594 -70.0908c4.92969 -5.62988 8.17969 -12.79 8.17969 -20.8496c0 -17.6699 -14.3301 -32 -32 -32z"/>
		</font>
</defs>
</svg>
